<svg width="32" height="32" viewBox="0 0 32 32" fill="none" xmlns="http://www.w3.org/2000/svg">
<rect x="0.5" y="0.5" width="31" height="31" rx="15.5" fill="white"/>
<rect x="0.5" y="0.5" width="31" height="31" rx="15.5" stroke="#ED5F52"/>
<path d="M24.3334 11.5178V20.3702C24.3334 21.2976 23.7382 22.225 22.8028 22.5622L18.5511 24.1641C18.296 24.2484 18.0409 24.3327 17.7008 24.3327C17.2756 24.3327 16.7654 24.1641 16.3403 23.9112C16.1702 23.7425 15.9151 23.5739 15.83 23.4053H12.5987C11.3232 23.4053 10.2178 22.3936 10.2178 21.0447V20.2016C10.2178 19.8644 10.4729 19.5271 10.898 19.5271C11.3232 19.5271 11.5783 19.78 11.5783 20.2016V21.0447C11.5783 21.6349 12.0885 22.0564 12.5987 22.0564H15.4048V9.91599H12.5987C12.0035 9.91599 11.5783 10.3375 11.5783 10.9277V11.7708C11.5783 12.108 11.3232 12.4452 10.898 12.4452C10.4729 12.4452 10.2178 12.108 10.2178 11.7708V10.9277C10.2178 9.66307 11.2382 8.56706 12.5987 8.56706H15.83C16.0001 8.39844 16.1702 8.22983 16.3403 8.06121C17.0205 7.63967 17.7858 7.55536 18.5511 7.80829L22.8028 9.41014C23.6532 9.66307 24.3334 10.5905 24.3334 11.5178Z" fill="#ED5F52"/>
<path d="M10.0477 18.3471C9.87763 18.3471 9.70756 18.2629 9.62253 18.1785L7.92185 16.4924C7.83681 16.408 7.83681 16.3238 7.75178 16.3238C7.75178 16.2394 7.66675 16.1551 7.66675 16.0709C7.66675 15.9865 7.66675 15.9022 7.75178 15.8179C7.75178 15.7336 7.83681 15.6493 7.92185 15.6493L9.62253 13.9631C9.87763 13.7102 10.3028 13.7102 10.5579 13.9631C10.813 14.2161 10.813 14.6376 10.5579 14.8905L9.96266 15.4807H13.4491C13.7892 15.4807 14.1293 15.7336 14.1293 16.1551C14.1293 16.5767 13.7892 16.661 13.4491 16.661H9.87763L10.4729 17.2511C10.728 17.504 10.728 17.9256 10.4729 18.1785C10.3878 18.2629 10.2178 18.3471 10.0477 18.3471Z" fill="#ED5F52"/>
</svg>
